<?xml version="1.0" encoding="UTF-8" standalone="no"?>
<!-- Created with Inkscape (http://www.inkscape.org/) -->

<svg
   xmlns:dc="http://purl.org/dc/elements/1.1/"
   xmlns:cc="http://creativecommons.org/ns#"
   xmlns:rdf="http://www.w3.org/1999/02/22-rdf-syntax-ns#"
   xmlns:svg="http://www.w3.org/2000/svg"
   xmlns="http://www.w3.org/2000/svg"
   xmlns:sodipodi="http://sodipodi.sourceforge.net/DTD/sodipodi-0.dtd"
   xmlns:inkscape="http://www.inkscape.org/namespaces/inkscape"
   width="156"
   height="54.950001"
   viewBox="0 0 156.00001 54.950002"
   id="svg2"
   version="1.1"
   inkscape:version="0.91 r13725"
   sodipodi:docname="42bangkok-logo-right.svg"
   inkscape:export-filename="/home/thachakrit/Documents/ideaConnex/42/42bangkok156.png"
   inkscape:export-xdpi="90.790001"
   inkscape:export-ydpi="90.790001">
  <defs
     id="defs4" />
  <sodipodi:namedview
     id="base"
     pagecolor="#ffffff"
     bordercolor="#666666"
     borderopacity="1.0"
     inkscape:pageopacity="0.0"
     inkscape:pageshadow="2"
     inkscape:zoom="3.959798"
     inkscape:cx="78.127505"
     inkscape:cy="15.59527"
     inkscape:document-units="px"
     inkscape:current-layer="layer1"
     showgrid="false"
     inkscape:window-width="1600"
     inkscape:window-height="851"
     inkscape:window-x="0"
     inkscape:window-y="25"
     inkscape:window-maximized="1"
     units="px" />
  <metadata
     id="metadata7">
    <rdf:RDF>
      <cc:Work
         rdf:about="">
        <dc:format>image/svg+xml</dc:format>
        <dc:type
           rdf:resource="http://purl.org/dc/dcmitype/StillImage" />
        <dc:title></dc:title>
      </cc:Work>
    </rdf:RDF>
  </metadata>
  <g
     inkscape:label="Layer 1"
     inkscape:groupmode="layer"
     id="layer1"
     transform="translate(0,-997.41218)">
    <path
       style="fill:#000000"
       d="m 50.161141,997.64335 0,7.17575 c 0,3.9468 0.0161,7.1758 0.03516,7.1758 0.01906,0 3.262831,-3.229 7.208984,-7.1758 l 7.173828,-7.17575 -7.208984,0 -7.208985,0 z m -20.707031,0 -14.386719,14.38475 -14.38476483,14.3868 0,5.8437 0,5.8438 14.41992183,0 14.419922,0 0,7.1523 c -10e-7,3.8294 0.03764,6.9149 0.08594,7.1289 l 14.402344,0 0,-12.8476 0,-13.0528 -14.455078,0 -14.453125,0 14.419922,-14.4199 14.419921,-14.41995 -7.24414,0 -7.244141,0 z m 35.195313,0 0,7.14265 0,7.1425 -7.244141,7.2422 -7.244141,7.2442 0,7.2089 0,7.211 14.419922,0 14.419922,0 0,-7.1192 0,-7.1191 -7.142578,7.0488 -7.140625,7.0469 -0.03516,-7.1367 -0.03516,-7.1367 7.175781,-7.1778 7.177734,-7.1777 0,-7.2109 0,-7.20905 -7.175781,0 -7.175781,0 z m 28.292968,28.83985 0,7.1758 0,7.1758 0.615235,0 0.615234,0 0,-7.1758 0,-7.1758 -0.615234,0 -0.615235,0 z m 50.753909,2.9063 c -1.31644,-0.053 -2.68321,0.3929 -3.45118,1.2675 -2.04095,2.3245 -1.13287,5.8002 1.69727,6.4922 1.15905,0.2835 2.86557,-0.016 3.76562,-0.6601 2.06602,-1.4791 2.15734,-5.1297 0.16211,-6.4512 -0.61364,-0.4065 -1.38396,-0.6169 -2.17382,-0.6484 z m -16.10547,0.035 c -1.07917,0 -1.3278,0.046 -2.02539,0.3887 -2.09258,1.0275 -2.83831,4.1641 -1.45313,6.1094 0.31931,0.4485 1.29551,1.0665 1.95313,1.2363 0.71679,0.1851 2.31918,0.04 2.9082,-0.2637 1.103,-0.5683 1.89716,-1.7882 2.06055,-3.1679 l 0.0801,-0.6836 -1.79492,0 -1.79687,0 0,0.4687 c 0,0.2571 -0.0363,0.5646 -0.082,0.6836 -0.0705,0.1832 0.053,0.2149 0.82031,0.2149 1.07343,0 1.15185,0.1622 0.40234,0.8203 -0.47562,0.4178 -0.54275,0.4367 -1.42969,0.3867 -0.80205,-0.045 -0.98934,-0.1077 -1.34374,-0.4473 -0.7603,-0.7285 -0.88758,-1.9416 -0.32032,-3.041 0.40882,-0.7921 1.01136,-1.1348 1.99024,-1.1348 0.76874,0 0.84793,0.032 1.35937,0.543 l 0.54102,0.543 0.70703,-0.3555 c 0.38795,-0.1949 0.72986,-0.3753 0.75976,-0.4023 0.16297,-0.1479 -0.77962,-1.1662 -1.39257,-1.5039 -0.63391,-0.3485 -0.84804,-0.3946 -1.94336,-0.3946 z m -17.76758,0.057 -2,3.83 -1.99805,3.8282 0.9375,0 0.9375,0 0.3457,-0.6836 0.34571,-0.6836 1.50195,0 c 1.10942,0 1.50163,0.046 1.50195,0.1719 4.1e-4,0.094 0.0643,0.4015 0.14258,0.6835 l 0.14258,0.5118 0.88281,0 c 0.4851,0 0.879,-0.045 0.875,-0.1016 -0.003,-0.056 -0.45242,-1.7633 -0.99804,-3.793 l -0.99219,-3.6914 -0.8125,-0.035 -0.8125,-0.037 z m -9.07813,0.01 -0.0723,0.4434 c -0.04,0.2444 -0.22696,1.7666 -0.41602,3.3828 -0.18905,1.6163 -0.379441,3.1457 -0.42187,3.3984 l -0.07617,0.459 2.02539,-0.055 c 1.51982,-0.041 2.12586,-0.1099 2.43359,-0.2754 1.4964,-0.8044 1.69429,-2.9689 0.32227,-3.5371 l -0.41993,-0.1718 0.33985,-0.1778 c 0.81704,-0.428 1.03851,-2.1449 0.36914,-2.8574 -0.43856,-0.4668 -1.06511,-0.6094 -2.68945,-0.6094 l -1.39454,0 z m 14.5,0 -0.0801,0.5117 c -0.0447,0.2818 -0.23524,1.8043 -0.42188,3.3829 -0.18664,1.5786 -0.37236,3.0701 -0.41406,3.3144 l -0.0762,0.4395 0.875,0 0.875,0 0.24609,-2.1524 c 0.1353,-1.184 0.28338,-2.2956 0.33008,-2.4707 0.0728,-0.2729 0.32642,0.028 1.79883,2.1192 l 1.71679,2.4355 0.76367,0.041 0.76563,0.041 0.0879,-0.7246 c 0.0484,-0.3982 0.25485,-2.1074 0.45898,-3.7988 l 0.3711,-3.0742 -0.80469,-0.043 c -0.44332,-0.018 -0.82831,-0.016 -0.85351,0.01 -0.0252,0.025 -0.17562,1.09 -0.33399,2.3652 -0.15838,1.2754 -0.30336,2.3753 -0.32226,2.4453 -0.019,0.07 -0.81891,-0.9906 -1.77735,-2.3574 l -1.74219,-2.4844 -0.73046,0 -0.73243,0 z m 17.75782,0 -0.0723,0.4434 c -0.04,0.2444 -0.22892,1.7666 -0.41797,3.3828 -0.18905,1.6163 -0.37717,3.1385 -0.41797,3.3828 l 0,0 -0.0742,0.4433 0.87696,0 0.87695,0 0.16602,-1.5371 c 0.0913,-0.8458 0.19075,-1.6213 0.22265,-1.7226 0.032,-0.1013 0.56581,0.591 1.18555,1.5371 l 1.12695,1.7207 1.0586,0 c 0.5826,0 1.06054,-0.029 1.06054,-0.066 0,-0.056 -2.23667,-3.2242 -2.61718,-3.7071 -0.1055,-0.1339 0.64625,-1.0508 2.93164,-3.5722 l 0.27929,-0.3067 -1.03906,0 -1.03906,0 -1.40039,1.6055 -1.39844,1.6055 0.0977,-0.8204 c 0.0529,-0.451 0.13243,-1.1732 0.17773,-1.6054 l 0.082,-0.7852 -0.83203,0 -0.83398,0 z m 16.1289,0 -0.0742,0.4434 c -0.04,0.2444 -0.22695,1.7666 -0.41601,3.3828 -0.18906,1.6163 -0.37717,3.1385 -0.41797,3.3828 l 0,0 -0.0742,0.4433 0.87695,0 0.875,0 0.16602,-1.5371 c 0.0913,-0.8458 0.19271,-1.6213 0.22461,-1.7226 0.0319,-0.1013 0.5658,0.591 1.18555,1.5371 l 1.12695,1.7207 1.05859,0 c 0.5826,0 1.0586,-0.029 1.0586,-0.066 0,-0.056 -2.23473,-3.2242 -2.61524,-3.7071 -0.1055,-0.1339 0.64623,-1.0508 2.93164,-3.5722 l 0.2793,-0.3067 -1.03906,0 -1.04102,0 -1.39844,1.6055 -1.39843,1.6055 0.0957,-0.8204 c 0.0529,-0.451 0.13449,-1.1732 0.17969,-1.6054 l 0.082,-0.7852 -0.83399,0 -0.83203,0 z m -46.42383,1.3672 c 0.23853,0 0.54667,0.082 0.68555,0.1836 0.35537,0.2599 0.31496,1.0397 -0.0703,1.3516 -0.16318,0.1323 -0.50498,0.2402 -0.75977,0.2402 -0.51397,0 -0.52799,-0.041 -0.37695,-1.1426 0.0826,-0.6022 0.10916,-0.6328 0.52148,-0.6328 z m 40.71094,0.1367 c 0.88586,0 1.54631,0.3793 1.90625,1.0957 0.51973,1.0345 0.11179,2.6098 -0.83984,3.2422 l 0,0 c -0.5977,0.396 -1.78415,0.4211 -2.47656,0.053 -1.23729,-0.6584 -1.46194,-2.5323 -0.4336,-3.6191 0.543,-0.574 1.01919,-0.7735 1.84375,-0.7735 z m -33.125,0.9102 c 0.0616,-0.062 0.21493,0.3683 0.3418,0.957 0.12687,0.5888 0.26133,1.1791 0.29883,1.3106 0.0602,0.2123 -0.0418,0.2382 -0.89063,0.2382 l -0.96094,0 0.54883,-1.1953 c 0.30192,-0.6578 0.60051,-1.2485 0.66211,-1.3105 z m -8.07226,1.9551 c 0.45154,-0.02 1.24734,0.1979 1.41211,0.457 0.22256,0.3501 0.10424,0.8959 -0.25391,1.1777 -0.2534,0.1992 -0.55862,0.2832 -1.03125,0.2832 l -0.67188,0 0.0918,-0.8535 c 0.0512,-0.4699 0.12025,-0.901 0.15234,-0.957 0.0384,-0.067 0.15027,-0.1007 0.30079,-0.1074 z m 13.14843,7.7929 c -0.11248,-0.024 -0.25811,0.01 -0.46679,0.01 l -0.70703,0 -0.87696,2.1524 c -0.48268,1.1837 -0.9201,2.1998 -0.9707,2.2598 -0.0507,0.06 -0.50803,-0.9087 -1.01758,-2.1524 l -0.92773,-2.2617 -0.73438,0 c -0.40427,0 -0.73437,0.038 -0.73437,0.084 0,0.1273 -1.08759,7.0571 -1.15039,7.3301 l 0,0 c -0.0479,0.2083 0.0563,0.2383 0.80664,0.2383 l 0.86133,0 0.16406,-1.1953 c 0.0895,-0.6578 0.23456,-1.6877 0.32226,-2.2891 l 0.15821,-1.0937 0.94726,2.289 c 0.82044,1.9831 0.98892,2.2891 1.25,2.2891 0.25302,0 0.3943,-0.2243 0.88672,-1.4004 1.42775,-3.4093 1.30948,-3.1761 1.39258,-2.7461 0.0413,0.2138 0.18372,1.234 0.31641,2.2676 l 0.24218,1.8789 0.86719,0 c 0.8286,0 0.86498,-0.013 0.80078,-0.3067 -0.037,-0.1692 -0.28606,-1.7221 -0.55273,-3.4511 -0.50575,-3.2795 -0.53951,-3.8318 -0.87696,-3.9024 z m -14.91015,0.01 0,3.8262 0,3.8281 0.88476,0 0.88282,0 0.0391,-1.666 0.0391,-1.6641 1.33594,1.6641 1.33594,1.666 1.10156,0 1.10156,0 -0.4082,-0.5117 c -0.2239,-0.2819 -0.96373,-1.1896 -1.64453,-2.0157 -1.20521,-1.4624 -1.23097,-1.5096 -0.9961,-1.7773 0.36367,-0.4147 2.39009,-2.8378 2.60156,-3.1113 0.17249,-0.2232 0.11403,-0.2383 -0.85156,-0.2383 l -1.03515,0 -1.27149,1.5625 -1.26953,1.5644 -0.0391,-1.5644 -0.0391,-1.5625 -0.88282,0 -0.88476,0 z m 17.76758,0 0,3.8262 0,3.8281 0.88867,0 0.88867,0 0,-3.8281 0,-3.8262 -0.88867,0 -0.88867,0 z m 2.73437,0 0,0.7519 0,0.752 0.82031,0 0.82032,0 0,3.0742 0,0 0,3.0761 0.88867,0 0.88867,0 0,-3.0683 0,-3.0684 0.78516,-0.043 0.78515,-0.041 0.043,-0.7187 0.041,-0.7168 -2.53711,0 -2.53516,0 z m 6.01367,0 0,3.8262 0,3.8281 2.05078,0 2.05079,0 0,-0.752 0,-0.7519 -1.16211,0 -1.16211,0 0,-3.0742 0,-3.0762 -0.88868,0 -0.88867,0 z"
       id="path4147"
       inkscape:connector-curvature="0" />
  </g>
</svg>
