<?xml version="1.0" encoding="UTF-8" standalone="no"?>
<!-- Created with Inkscape (http://www.inkscape.org/) -->

<svg
   xmlns:dc="http://purl.org/dc/elements/1.1/"
   xmlns:cc="http://creativecommons.org/ns#"
   xmlns:rdf="http://www.w3.org/1999/02/22-rdf-syntax-ns#"
   xmlns:svg="http://www.w3.org/2000/svg"
   xmlns="http://www.w3.org/2000/svg"
   xmlns:sodipodi="http://sodipodi.sourceforge.net/DTD/sodipodi-0.dtd"
   xmlns:inkscape="http://www.inkscape.org/namespaces/inkscape"
   version="1.1"
   id="svg224"
   xml:space="preserve"
   width="113"
   height="40"
   viewBox="0 0 113 40"
   sodipodi:docname="42bangkok-logo-right-white.svg"
   inkscape:version="0.92.4 (5da689c313, 2019-01-14)"><metadata
     id="metadata230"><rdf:RDF><cc:Work
         rdf:about=""><dc:format>image/svg+xml</dc:format><dc:type
           rdf:resource="http://purl.org/dc/dcmitype/StillImage" /><dc:title></dc:title></cc:Work></rdf:RDF></metadata><defs
     id="defs228"><clipPath
       clipPathUnits="userSpaceOnUse"
       id="clipPath258"><path
         d="M 0,768 H 1024 V 0 H 0 Z"
         id="path256"
         inkscape:connector-curvature="0" /></clipPath></defs><sodipodi:namedview
     pagecolor="#ffffff"
     bordercolor="#666666"
     borderopacity="1"
     objecttolerance="10"
     gridtolerance="10"
     guidetolerance="10"
     inkscape:pageopacity="0"
     inkscape:pageshadow="2"
     inkscape:window-width="1920"
     inkscape:window-height="1001"
     id="namedview226"
     showgrid="false"
     inkscape:zoom="5.2149125"
     inkscape:cx="43.157372"
     inkscape:cy="3.5845139"
     inkscape:window-x="-9"
     inkscape:window-y="-9"
     inkscape:window-maximized="1"
     inkscape:current-layer="g232" /><g
     id="g232"
     inkscape:groupmode="layer"
     inkscape:label="42_KMITL_createFont"
     transform="matrix(1.3333333,0,0,-1.3333333,0,40)"><g
       id="g358"
       transform="matrix(0.31211332,0,0,0.31211332,-120.37078,-104.80872)"
       style="fill:#ffffff"><g
         transform="translate(461.6607,432.1149)"
         id="g234"
         style="fill:#ffffff"><path
           inkscape:connector-curvature="0"
           id="path236"
           style="fill:#ffffff;fill-opacity:1;fill-rule:nonzero;stroke:none"
           d="m 0,0 h -25.333 l -50.664,-50.664 v -20.508 h 50.664 V -96.504 H 0 v 45.84 h -50.665 z" /></g><g
         transform="translate(472.5171,406.7828)"
         id="g238"
         style="fill:#ffffff"><path
           inkscape:connector-curvature="0"
           id="path240"
           style="fill:#ffffff;fill-opacity:1;fill-rule:nonzero;stroke:none"
           d="M 0,0 25.332,25.332 H 0 Z" /></g><g
         transform="translate(523.1812,406.7828)"
         id="g242"
         style="fill:#ffffff"><path
           inkscape:connector-curvature="0"
           id="path244"
           style="fill:#ffffff;fill-opacity:1;fill-rule:nonzero;stroke:none"
           d="M 0,0 V 25.332 H -25.332 V 0 l -25.332,-25.332 v -25.333 h 25.332 v 25.333 z" /></g><g
         transform="translate(523.1812,381.4508)"
         id="g246"
         style="fill:#ffffff"><path
           inkscape:connector-curvature="0"
           id="path248"
           style="fill:#ffffff;fill-opacity:1;fill-rule:nonzero;stroke:none"
           d="M 0,0 -25.332,-25.333 H 0 Z" /></g><path
         inkscape:connector-curvature="0"
         id="path250"
         style="fill:#ffffff;fill-opacity:1;fill-rule:nonzero;stroke:none"
         d="m 549.658,356.191 h -2 v 25.187 h 2 z" /><g
         id="g252"
         style="fill:#ffffff"><g
           clip-path="url(#clipPath258)"
           id="g254"
           style="fill:#ffffff"><g
             transform="translate(563.6377,370.6885)"
             id="g260"
             style="fill:#ffffff"><path
               inkscape:connector-curvature="0"
               id="path262"
               style="fill:#ffffff;fill-opacity:1;fill-rule:nonzero;stroke:none"
               d="M 0,0 H 0.62 C 1.141,0 1.86,0.06 2.321,0.5 2.62,0.78 2.78,1.26 2.78,1.7 2.78,2.24 2.541,2.54 2.36,2.7 1.98,3 1.44,3.021 1.001,3.021 H 0.36 Z m -0.68,-5.521 h 1.12 c 0.581,0 1.52,0.06 2,0.5 0.18,0.16 0.481,0.54 0.481,1.28 0,0.28 -0.061,0.7 -0.36,1 C 2.12,-2.301 1.2,-2.28 0.921,-2.28 H -0.28 Z M -2.421,5.421 h 4.262 c 0.9,0 2.099,-0.1 2.94,-0.92 0.48,-0.46 0.861,-1.24 0.861,-2.28 0,-0.861 -0.221,-1.541 -0.621,-2.081 -0.44,-0.6 -0.959,-0.88 -1.4,-1.02 0.681,-0.16 1.181,-0.48 1.521,-0.801 0.619,-0.599 0.859,-1.259 0.859,-2.12 0,-1.421 -0.56,-2.341 -1.08,-2.86 C 3.86,-7.722 2.301,-7.922 0.9,-7.922 h -4.961 z" /></g><g
             transform="translate(579.1582,367.6475)"
             id="g264"
             style="fill:#ffffff"><path
               inkscape:connector-curvature="0"
               id="path266"
               style="fill:#ffffff;fill-opacity:1;fill-rule:nonzero;stroke:none"
               d="M 0,0 -1.08,4.701 -3.32,0 Z M 0.561,-2.36 H -4.48 L -5.74,-4.881 H -9.062 L -2.02,8.462 H 0.82 L 4.401,-4.881 H 1.24 Z" /></g><g
             transform="translate(584.9961,362.7666)"
             id="g268"
             style="fill:#ffffff"><path
               inkscape:connector-curvature="0"
               id="path270"
               style="fill:#ffffff;fill-opacity:1;fill-rule:nonzero;stroke:none"
               d="m 0,0 1.66,13.343 h 2.682 l 6.14,-8.682 1.081,8.682 h 3.081 L 13.003,0 H 10.322 L 4.141,8.722 3.081,0 Z" /></g><g
             transform="translate(608.458,370.0479)"
             id="g272"
             style="fill:#ffffff"><path
               inkscape:connector-curvature="0"
               id="path274"
               style="fill:#ffffff;fill-opacity:1;fill-rule:nonzero;stroke:none"
               d="m 0,0 h 6.241 c -0.099,-3.36 -1.4,-5.021 -2.06,-5.701 -1.52,-1.58 -3.26,-1.88 -4.921,-1.88 -1.7,0 -3.481,0.399 -4.902,1.88 -1.379,1.44 -1.7,3.201 -1.7,4.621 0,2.52 0.921,4.241 2.001,5.381 1.68,1.761 3.58,2.06 5.461,2.06 1.2,0 2.561,-0.2 3.761,-0.979 0.88,-0.58 1.66,-1.521 2.161,-2.402 L 3.2,1.48 C 2.96,2.021 2.521,2.621 1.96,3.001 1.261,3.481 0.5,3.562 -0.08,3.562 c -1.08,0 -1.981,-0.261 -2.8,-1.122 -0.881,-0.919 -1.301,-2.24 -1.301,-3.4 0,-1.02 0.38,-2.16 1.1,-2.86 0.841,-0.841 1.921,-0.96 2.741,-0.96 0.62,0 1.46,0.119 2.12,0.599 0.481,0.34 0.941,0.96 1.141,1.721 H -0.3 Z" /></g><g
             transform="translate(620.2969,370.5283)"
             id="g276"
             style="fill:#ffffff"><path
               inkscape:connector-curvature="0"
               id="path278"
               style="fill:#ffffff;fill-opacity:1;fill-rule:nonzero;stroke:none"
               d="M 0,0 4.881,5.581 H 8.563 L 2.74,-0.88 7.682,-7.762 H 3.801 L -0.22,-1.721 -0.96,-7.762 H -4.041 L -2.4,5.581 h 3.08 z" /></g><g
             transform="translate(632.9775,372.2891)"
             id="g280"
             style="fill:#ffffff"><path
               inkscape:connector-curvature="0"
               id="path282"
               style="fill:#ffffff;fill-opacity:1;fill-rule:nonzero;stroke:none"
               d="m 0,0 c -0.78,-0.82 -1.22,-1.94 -1.22,-3.062 0,-1.219 0.459,-2.179 1.08,-2.799 0.9,-0.921 1.981,-1.12 2.92,-1.12 0.901,0 2,0.139 2.981,1.139 0.72,0.74 1.24,1.901 1.24,3.281 0,0.86 -0.18,1.941 -1.061,2.8 C 5.062,1.1 4.001,1.28 3.181,1.28 1.86,1.28 0.8,0.84 0,0 m 8.282,2.38 c 1.14,-1.1 1.88,-2.78 1.88,-4.741 0,-1.901 -0.66,-3.961 -2.06,-5.401 -1.681,-1.72 -3.781,-2.06 -5.521,-2.06 -1.661,0 -3.502,0.3 -5.082,1.9 -0.92,0.941 -1.88,2.481 -1.88,4.661 0,2.34 0.941,4.16 2.2,5.361 1.701,1.621 3.761,2.02 5.482,2.02 2.56,0 4.1,-0.899 4.981,-1.74" /></g><g
             transform="translate(648.6377,370.5283)"
             id="g284"
             style="fill:#ffffff"><path
               inkscape:connector-curvature="0"
               id="path286"
               style="fill:#ffffff;fill-opacity:1;fill-rule:nonzero;stroke:none"
               d="M 0,0 4.881,5.581 H 8.562 L 2.74,-0.88 7.682,-7.762 H 3.801 l -4.022,6.041 -0.739,-6.041 h -3.081 l 1.64,13.343 H 0.68 Z" /></g></g></g><g
         transform="translate(563.9102,349.043)"
         id="g288"
         style="fill:#ffffff"><path
           inkscape:connector-curvature="0"
           id="path290"
           style="fill:#ffffff;fill-opacity:1;fill-rule:nonzero;stroke:none"
           d="m 0,0 4.561,5.562 h 3.76 L 2.921,-0.76 8.742,-7.781 H 4.781 L 0,-1.86 V -7.781 H -3.081 V 5.562 H 0 Z" /></g><g
         transform="translate(573.6094,341.2617)"
         id="g292"
         style="fill:#ffffff"><path
           inkscape:connector-curvature="0"
           id="path294"
           style="fill:#ffffff;fill-opacity:1;fill-rule:nonzero;stroke:none"
           d="m 0,0 2.141,13.343 h 2.56 l 3.321,-7.982 3.321,7.982 h 2.56 L 16.044,0 H 12.963 L 11.903,7.962 8.563,0 H 7.482 L 4.142,7.962 3.081,0 Z" /></g><path
         inkscape:connector-curvature="0"
         id="path296"
         style="fill:#ffffff;fill-opacity:1;fill-rule:nonzero;stroke:none"
         d="m 595.09,341.262 h -3.08 v 13.343 h 3.08 z" /><g
         transform="translate(602.751,352.0039)"
         id="g298"
         style="fill:#ffffff"><path
           inkscape:connector-curvature="0"
           id="path300"
           style="fill:#ffffff;fill-opacity:1;fill-rule:nonzero;stroke:none"
           d="M 0,0 V -10.742 H -3.081 V 0 h -2.9 V 2.601 H 2.9 V 0 Z" /></g><g
         transform="translate(610.3506,354.6045)"
         id="g302"
         style="fill:#ffffff"><path
           inkscape:connector-curvature="0"
           id="path304"
           style="fill:#ffffff;fill-opacity:1;fill-rule:nonzero;stroke:none"
           d="m 0,0 v -10.742 h 4.141 v -2.601 H -3.081 V 0 Z" /></g></g></g></svg>